<svg xmlns="http://www.w3.org/2000/svg" xmlns:xlink="http://www.w3.org/1999/xlink" width="762" height="467" viewBox="0 0 762 467" fill="none"><g opacity="1" transform="translate(97.998046875 0.000732421875)  rotate(0 275 202)"><path id="Vector " fill-rule="evenodd" style="fill:#ECF5FF" transform="translate(-98 96)  rotate(0 380.5 185)" opacity="1" d="M67.33,257.18C123.15,327.47 319.25,315.1 444.4,360.38C569.56,405.66 694.8,279.71 738.57,219.15C794.49,141.76 738.57,24.65 651.23,2.53C594.2,-11.91 461.93,38.06 375.04,85.03C288.16,132.01 183.93,2.53 67.33,35.99C-51.08,69.45 11.5,186.89 67.33,257.18Z " /><g opacity="1" transform="translate(44.33 291.12)  rotate(0 33.55 39.725)"><path id="Vector" fill-rule="evenodd" style="fill:#EBEDF0" transform="translate(16.4 21.91)  rotate(0 25.35 28.38)" opacity="1" d="M23.01 9.45C23.48 8.17 24.43 6.53 25.38 6.59C25.855 6.62575 26.1683 7.07629 26.4624 7.49925C26.7441 7.9044 27.0082 8.28425 27.38 8.25C27.92 8.2 28.01 7.34 28.76 6.01C29.76 4.21 30.31 4.49 31.83 2.29C32.85 0.82 33.08 0.02 33.73 0C34.18 -0.01 34.56 0.38 35.16 1.18C36.65 3.21 36.86 4.3 37.36 4.93C38.6079 6.50482 42.0026 5.69226 45.0556 4.9615C47.6052 4.35122 49.9165 3.79798 50.54 4.74C51.26 5.83 49.38 8.42 49.08 8.83C48.2463 9.97507 47.2865 10.7166 46.5654 11.2737C45.8507 11.8258 45.3705 12.1968 45.48 12.6C45.69 13.41 47.94 13.01 48.24 13.92C48.6356 15.1168 45.1864 17.2137 44.8887 17.3947L44.88 17.4C44.09 17.87 43.18 18.42 41.84 18.75C39.93 19.21 38.54 18.91 38.22 19.62C38.1077 19.874 38.2029 20.1209 38.2994 20.371C38.4005 20.633 38.503 20.8987 38.37 21.18C38.06 21.86 36.79 21.9 36.33 21.9C34.3891 21.9347 32.7203 21.6727 31.2496 21.4418C29.75 21.2064 28.4563 21.0033 27.29 21.18C24.89 21.54 23.33 23.46 21.88 25.38C16.86 32.02 4.39 50.12 0 56.76L20.45 24.2C22.62 20.45 22.93 17.53 22.8 15.54C22.7732 15.1294 22.725 14.7188 22.6761 14.3018C22.5057 12.8504 22.3264 11.3222 23.01 9.45Z" /><path id="Vector" fill-rule="evenodd" style="fill:#EBEDF0" transform="translate(0 39.66)  rotate(0 9.095 19.9)" opacity="1" d="M11.5608 11.9186L11.56 11.92C10.46 13.86 9.09 14.91 8.59 16.15C8.08 17.43 8.57 18.75 9.1 20.01C10.91 24.39 16.2 35.73 18.19 39.8L8.1 20.37C6.89 18.23 5.54 17.23 4.53 16.72C3.59 16.25 2.53 15.99 1.6 14.86C1.11 14.26 0.57 13.32 0.88 12.87C1.18 12.44 2.08 12.76 2.27 12.37C2.354 12.1891 2.22089 12.004 1.99746 11.6933C1.87511 11.5232 1.72569 11.3154 1.57 11.05C0.97 10.04 1.27 9.85 0.63 8.47C0.504746 8.20201 0.387977 7.98239 0.289826 7.79779C0.0510227 7.34864 -0.0775681 7.10679 0.05 6.88C0.18 6.65 0.48 6.58 1.04 6.52C1.93115 6.42652 2.49608 6.47285 2.90662 6.50652C3.15487 6.52688 3.34666 6.54261 3.52 6.52C5.6 6.23 5.81 0.08 7.22 0C7.97 -0.04 8.7 1.63 8.81 1.9C9.46 3.37 9.17 4.62 9.63 4.75C9.85414 4.81334 10.0759 4.55616 10.3057 4.28966C10.5475 4.00923 10.7983 3.71847 11.07 3.78C11.78 3.93 11.81 6.28 11.81 6.43L11.81 6.49239C11.8104 6.99868 11.8109 7.58979 11.59 8.31C11.4646 8.72947 11.3038 9.0767 11.1703 9.36496C10.9633 9.81201 10.8219 10.1172 10.98 10.33C11.17 10.6 11.59 10.43 11.79 10.71C12.0295 11.0593 11.6815 11.6973 11.5608 11.9186Z" /><path id="Vector" fill-rule="evenodd" style="fill:#EBEDF0" transform="translate(21.14 37.12)  rotate(0 7.735 5.525)" opacity="1" d="M7.15 10.09C6.34 9.87 5.7 9.56 5.14 9.29C4.65 9.06 4.22 8.86 3.87 8.81C3.2 8.71 2.59 9.12 1.85 9.66L0 11.05L0.32 8.12L0.51 7.94C1.41 7.09 1.98 6.19 2.19 5.26C2.22 5.12 2.25 4.97 2.27 4.82C2.38 4.21 2.51 3.47 3.09 2.69C3.41 2.26 4.27 1.28 5.15 1.62C5.39 1.71 5.55 1.86 5.66 2.03L5.75 1.94C6.13 1.57 6.4 1.43 6.66 1.3C6.86 1.2 7.06 1.1 7.41 0.82C7.56 0.7 7.68 0.59 7.78 0.5C8.09 0.22 8.49 -0.1 9.03 0.03C9.61 0.19 9.8 0.74 9.94 1.1C10.17 1.75 10.24 2.19 10.29 2.49C10.31 2.6 10.33 2.72 10.34 2.76C10.47 3.07 12.05 3.16 12.65 3.19C13.98 3.26 15.14 3.33 15.42 4.24C15.62 4.9 15.2 5.61 14.15 6.42C13.82 6.67 13.49 6.85 13.2 6.98C13.38 7.15 13.52 7.37 13.53 7.68C13.55 8.41 12.8 8.97 11.3 9.35C11.2853 9.35359 11.2703 9.35724 11.2551 9.36094C10.8899 9.45011 10.4037 9.5688 9.77 9.54C9.46 9.52 9.19 9.48 8.96 9.43C8.93 9.56 8.86 9.7 8.75 9.83C8.42 10.21 7.88 10.31 7.15 10.09Z" /><path id="Vector" fill-rule="evenodd" style="fill:#EBEDF0" transform="translate(13.46 18.16)  rotate(0 6.48 6.89)" opacity="1" d="M2.79 10.16C2.75 10.14 2.72 10.12 2.68 10.1C2.23 9.82 2.03 9.6 1.84 9.38C1.69 9.22 1.54 9.05 1.18 8.78C1.03 8.67 0.89 8.58 0.77 8.5C0.43 8.27 0.01 7.97 0 7.41C0.01 6.82 0.49 6.49 0.81 6.27C1.37 5.88 1.79 5.69 2.06 5.57C2.16 5.53 2.27 5.48 2.31 5.45C2.58 5.25 2.26 3.7 2.14 3.12C2.13524 3.09581 2.13048 3.07168 2.12573 3.04762C1.87156 1.75879 1.65503 0.660836 2.46 0.17C3.04 -0.19 3.84 0.03 4.89 0.84C5.22 1.1 5.47 1.37 5.67 1.62C5.79 1.4 5.97 1.21 6.27 1.12C6.97 0.92 7.7 1.5 8.45 2.86C8.64 3.19 8.88 3.64 9.02 4.29C9.08 4.59 9.11 4.86 9.12 5.1C9.26 5.1 9.41 5.12 9.56 5.2C10.01 5.42 10.24 5.92 10.22 6.68C10.21 7.52 10.07 8.21 9.96 8.82C9.95583 8.84249 9.95169 8.86485 9.94757 8.88706C9.85273 9.39815 9.77167 9.83499 9.81 10.18C9.88 10.84 10.44 11.33 11.15 11.91L12.96 13.34L10.05 13.78L9.82 13.64C8.77 12.98 7.75 12.67 6.8 12.7C6.65 12.7 6.5 12.72 6.35 12.73C5.74 12.78 4.98 12.84 4.08 12.48C3.58 12.28 2.42 11.7 2.52 10.76C2.55 10.5 2.66 10.31 2.79 10.16Z" /><path id="Vector" fill-rule="evenodd" style="fill:#EBEDF0" transform="translate(26.81 11.71)  rotate(0 7.735 5.525)" opacity="1" d="M15.42 4.24C15.62 4.9 15.2 5.61 14.15 6.42C13.82 6.67 13.49 6.85 13.2 6.98C13.38 7.15 13.52 7.37 13.53 7.68C13.55 8.41 12.8 8.97 11.3 9.35C11.2853 9.35359 11.2703 9.35724 11.2551 9.36094C10.8899 9.45011 10.4037 9.5688 9.77 9.54C9.46 9.52 9.19 9.48 8.96 9.43C8.93 9.56 8.86 9.7 8.75 9.83C8.42 10.21 7.88 10.31 7.15 10.09C6.34 9.87 5.7 9.56 5.14 9.29C4.65 9.06 4.22 8.86 3.87 8.81C3.2 8.71 2.59 9.12 1.85 9.66L0 11.05L0.32 8.12L0.51 7.94C1.41 7.09 1.98 6.19 2.19 5.26C2.22 5.12 2.25 4.97 2.27 4.82C2.38 4.21 2.51 3.47 3.09 2.69C3.41 2.26 4.27 1.28 5.15 1.62C5.39 1.71 5.55 1.86 5.66 2.03L5.75 1.94C6.13 1.57 6.4 1.43 6.66 1.3C6.86 1.2 7.06 1.1 7.41 0.82C7.56 0.7 7.68 0.59 7.78 0.5C8.09 0.22 8.49 -0.1 9.03 0.03C9.61 0.19 9.8 0.74 9.94 1.1C10.17 1.75 10.24 2.19 10.29 2.49C10.31 2.6 10.33 2.72 10.34 2.76C10.47 3.07 12.05 3.16 12.65 3.19C13.98 3.26 15.14 3.33 15.42 4.24Z" /><path id="Vector" fill-rule="evenodd" style="fill:#EBEDF0" transform="translate(16.11 9.72)  rotate(0 6.19 34.555)" opacity="1" d="M5.09 32.72C5.67 30.73 6.25 28.85 6.82 27.01C8.33 22.1 9.77 17.46 10.65 12.16C10.85 10.98 11.26 8.52 10.42 5.62C9.93 3.93 9.09 2.35 7.93 0.91L9.06 0C10.34 1.59 11.27 3.35 11.81 5.22C12.75 8.43 12.3 11.11 12.08 12.4C11.18 17.79 9.73 22.47 8.2 27.43C7.64 29.26 7.06 31.14 6.48 33.13C5.72 35.74 4.78 38.99 3.88 43.35C2.97 47.7 2.31 52.11 1.92 56.45C1.36 62.66 1.44 66.7 1.47 68.02L1.47097 68.0874C1.4804 68.7398 1.48253 68.8875 1.26 69.11L0.74 68.6L0.03 68.53C0.03 68.46 0.03 68.3 0.02 68.06C-0.01 66.71 -0.09 62.61 0.48 56.32C0.88 51.92 1.54 47.46 2.46 43.06C3.38 38.64 4.33 35.36 5.09 32.72Z" /><path id="Vector" fill-rule="evenodd" style="fill:#EBEDF0" transform="translate(17.32 0)  rotate(0 5.655 6.185)" opacity="1" d="M3.45 12.25C2.26 11.92 1.31 10.95 0.62 9.38C0.29 8.63 0.22 7.85 0.06 6.3C0.0594181 6.29302 0.0587601 6.28521 0.058034 6.2766C0.0338027 5.98926 -0.0662179 4.80316 0.06 3.24C0.15 2.19 0.26 1.77 0.55 1.43C0.87 1.07 1.29 0.85 1.75 0.75C1.76 0.61 1.8 0.47 1.89 0.34C2.25956 -0.17544 2.85612 0.0184784 3.20136 0.130703C3.21111 0.133873 3.22066 0.136978 3.23 0.14C3.4 0.2 3.61 0.28 3.85 0.32C4.21524 0.389099 4.44406 0.321779 4.77692 0.223847L4.79 0.22C4.80301 0.21634 4.81616 0.212631 4.82944 0.208882C5.1428 0.120455 5.53277 0.0104067 6.07 0.02C7.17 0.04 7.99 0.53 8.25 0.69C9.67 1.54 10.16 2.9 10.72 4.47C10.84 4.78 11.21 5.92 11.29 7.38C11.36 8.44 11.22 8.87 11.06 9.18C10.74 9.81 10.24 10.11 9.01 10.73C7.72 11.38 7.07 11.7 6.54 11.87C5.31 12.26 4.54 12.5 3.63 12.3C3.57 12.28 3.51 12.27 3.45 12.25Z" /></g><g opacity="1" transform="translate(130.58 84.24)  rotate(0 50.275 65.87)"><path id="Vector" fill-rule="evenodd" style="fill:#FCD3D3" transform="translate(0 0)  rotate(0 50.275 65.87)" opacity="1" d="M5.77 0.7C5.77 0.7 13.17 -1.99 19.45 3.18C25.74 8.36 47.04 56.26 47.04 56.26L85.49 104.41L88.47 107.84C91.06 108.89 93.71 110.81 95.94 113.46C101.04 119.49 102.07 127.01 98.22 130.26C94.38 133.5 87.13 131.24 82.02 125.21C79.79 122.56 78.34 119.64 77.74 116.91L72.77 111.73L35.96 74.72L0 7.84L5.77 0.7Z" /><path id="Vector" fill-rule="evenodd" style="fill:#E9E9EB" transform="translate(2.29 12.09)  rotate(0 23.405 21.59)" opacity="1" d="M0,5.54L21.95,43.18L46.81,34.59L32.97,14.12L23.34,0L0,5.54Z " /></g><path id="Vector" fill-rule="evenodd" style="fill:#3F3D56" transform="translate(0 368.65)  rotate(0 275 0.84)" opacity="1" d="M0,1.68L550,1.68L550,0L0,0L0,1.68Z " /><path id="Vector" fill-rule="evenodd" style="fill:#2F2E41" transform="translate(345.52 193.93)  rotate(0 21.925 29.125)" opacity="1" d="M43.4 0L43.85 0L43.85 58.25L0 58.25L0 43.37C0 19.43 19.45 0 43.4 0Z" /><path id="Vector" fill-rule="evenodd" style="fill:#FCD3D3" transform="translate(355.29 219.68)  rotate(0 17.04 16.25)" opacity="1" d="M34.08,32.5L25.91,0L7.27,0.93L0,24.71L34.08,32.5Z " /><path id="Vector" fill-rule="evenodd" style="fill:#000000" transform="translate(355.29 219.68)  rotate(0 17.04 16.25)" opacity="0.1" d="M34.08,32.5L25.91,0L7.27,0.93L0,24.71L34.08,32.5Z " /><path id="Vector" fill-rule="evenodd" style="fill:#FCD3D3" transform="translate(350.33 190.72)  rotate(0 21.925 21.91)" opacity="1" d="M21.93,0C9.82,0 0,9.81 0,21.91C0,34.01 9.82,43.82 21.93,43.82C34.03,43.82 43.85,34.01 43.85,21.91C43.85,9.81 34.03,0 21.93,0Z " /><path id="Vector" fill-rule="evenodd" style="fill:#2F2E41" transform="translate(268.16 322.11)  rotate(0 87.13 33.28)" opacity="1" d="M10.49 36.8C-3.49 28.52 -2.97 13.51 8.92 5.76C20.81 -1.99 51.82 18.79 51.82 18.79L57.63 12.99L120.55 12.21L130.39 14.28L154.22 0.31C154.22 0.31 166.65 -2.8 172.34 10.66C176.655 20.8486 174.294 22.58 158.965 33.8234C154.043 37.4334 147.784 42.024 139.98 48.19C107.86 73.55 60.22 65.27 60.22 65.27C60.22 65.27 24.48 45.08 10.49 36.8Z" /><path id="Vector" fill-rule="evenodd" style="fill:#2F2E41" transform="translate(305.85 341.57)  rotate(0 23.045 16.56)" opacity="1" d="M0,24.32L36.77,33.12L46.09,10.87L21.23,0L0,24.32Z " /><path id="Vector" fill-rule="evenodd" style="fill:#2F2E41" transform="translate(357.12 341.57)  rotate(0 25.12 21.22)" opacity="1" d="M0,15.53L12.95,42.44L50.24,26.4L33.51,0L0,15.53Z " /><path id="Vector" fill-rule="evenodd" style="fill:#E9E9EB" transform="translate(324.75 240.08)  rotate(0 42.47 51.39)" opacity="1" d="M76.25,41.67L84.94,16.86L61.63,0.82L32.37,0L0,14.28L10.36,71.21L1.04,95.02L50.76,102.78L76.25,94.87L74.06,83.63L76.25,41.67Z " /><path id="Vector" fill-rule="evenodd" style="fill:#FCD3D3" transform="translate(335.89 354.51)  rotate(0 14.5 11.84)" opacity="1" d="M0,15.53L21.23,23.68L29,4.66L12.95,0L0,15.53Z " /><path id="Vector" fill-rule="evenodd" style="fill:#FCD3D3" transform="translate(351.43 354.51)  rotate(0 11.135 12.425)" opacity="1" d="M0,9.83L0,24.85L22.27,22.25L19.72,0L0,9.83Z " /><path id="Vector" fill-rule="evenodd" style="fill:#2F2E41" transform="translate(342.62 369.52)  rotate(0 32.63 14.575)" opacity="1" d="M47.13,26.91C60.08,17.6 67.33,5.69 64.74,4.14C62.15,2.59 54.38,0 54.38,0L10.88,8.8L0,13.46C0,13.46 34.18,36.23 47.13,26.91Z " /><path id="Vector" fill-rule="evenodd" style="fill:#2F2E41" transform="translate(290.97 361.75)  rotate(0 32.725 17.92)" opacity="1" d="M62.53 0L65.45 22.25C65.45 22.25 23.68 39.33 7.11 35.19C-9.47 31.05 8.14 4.14 8.14 4.14L54.76 7.76L62.53 0Z" /><g opacity="1" transform="translate(393.79 164.19)  rotate(0 37.575 52.555)"><path id="uuid-f90347b5-01d3-4a65-adde-e3fff0e81842-199" fill-rule="evenodd" style="fill:#FCD3D3" transform="translate(10.06 0)  rotate(0 20.015 19.62)" opacity="1" d="M30.8 39.24L11.78 19.3C9.25 18.56 6.93 17.23 5.02 15.42C0.17 10.94 -1.44 4.82 1.41 1.73C4.26 -1.35 10.5 -0.21 15.34 4.26C17.3 6.03 18.81 8.23 19.74 10.7L40.03 29.92L30.8 39.24Z" /><path id="Vector" fill-rule="evenodd" style="fill:#E9E9EB" transform="translate(0 12.41)  rotate(0 37.575 46.355)" opacity="1" d="M9.76 92.12C5.31 90.45 2.74 87.47 1.31 84.13C-2.19 75.97 1.57 66.5 9.55 62.61L46.26 44.71L27.27 12.07L33.22 0C33.22 0 79.43 25.74 74.83 44.48C70.23 63.21 24.4 97.62 9.76 92.12Z" /></g><path id="Vector" fill-rule="evenodd" style="fill:#303133" transform="translate(329.48 182.09)  rotate(0 40.105 38.525)" opacity="1" d="M63.77 70.07C64.35 71.2 64.63 72.46 65.31 73.53C67.29 76.66 72.15 76.9 75.16 74.74C78.17 72.57 79.57 68.77 80.01 65.09C80.8667 57.9768 78.8005 51.0746 76.7212 44.1289C75.3541 39.5622 73.9814 34.9767 73.43 30.3C72.93 26.06 73.1 21.68 71.61 17.68C69.74 12.64 65.39 8.83 60.57 6.45C55.74 4.07 51.87 3.83 51.87 3.83C43.89 -0.35 39.39 -1.68 31.55 2.76C23.71 7.2 9.99 30.32 9.47 39.3C9.34323 41.5208 8.66314 40.4724 7.84167 39.2061C6.91354 37.7753 5.80493 36.0663 5.11 38.48C4.12 41.91 1.92 44.88 0.81 48.27C-0.53 52.31 -0.19 56.88 1.71 60.69C3.61 64.5 7.06 67.51 11.09 68.88C14.35 69.99 18.43 69.83 20.64 67.2C21.8 65.82 22.25 64.01 22.95 62.35C23.6071 60.7846 24.8437 61.1031 26.2541 61.4663C27.4836 61.783 28.8451 62.1337 30.07 61.3C23.51 57.03 20.87 33.4 22.46 25.73C24.05 18.07 27.96 19.82 32.41 13.38C34.31 17.4 37.87 20.6 42.06 22.07C45.81 23.4 53.07 34.11 57.42 34.96C56.96 35.41 57.04 36.03 58.74 34.88C58.99 35.13 59.22 35.61 59.36 36.42C59.8531 39.4553 58.7301 43.9041 57.7468 47.7995C57.3144 49.5124 56.9091 51.1183 56.68 52.45C55.65 58.45 46.88 57.2 45.99 63.22C45.35 67.49 47.21 72.03 50.66 74.64C54.1 77.24 58.99 77.79 62.92 76.02C61.27 75.08 59.51 74.03 58.76 72.28C58.01 70.54 58.98 67.99 60.88 67.94C62.14 67.9 63.19 68.95 63.77 70.07Z" /><g opacity="1" transform="translate(258.94 214.77)  rotate(0 46.875 42.115)"><path id="uuid-bae71f6d-0a8e-4bcd-ae8c-7ec40a5eb615-200" fill-rule="evenodd" style="fill:#FCD3D3" transform="translate(0 0)  rotate(0 10.785 23.885)" opacity="1" d="M3.38 20.35C1.8 18.25 0.74 15.79 0.3 13.19C-0.88 6.7 1.5 0.83 5.63 0.08C9.77 -0.67 14.07 3.97 15.26 10.46C15.77 13.04 15.65 15.71 14.92 18.25L21.57 44.98L8.75 47.77L3.38 20.35Z" /><path id="Vector" fill-rule="evenodd" style="fill:#E9E9EB" transform="translate(2.81 24.16)  rotate(0 45.47 30.04)" opacity="1" d="M0.19 0L13.57 1.45L30.97 34.96L65.76 13.58C73.33 8.93 83.34 10.84 88.36 18.16C90.42 21.15 91.56 24.92 90.59 29.57C87.39 44.87 33.75 65.1 15.46 58.95C-2.83 52.79 0.19 0 0.19 0Z" /></g><path id="Vector" fill-rule="evenodd" style="fill:#FFFFFF" transform="translate(392.7 140.76)  rotate(0 62.32 95.515)" opacity="1" d="M124.64,0L0,39.37L0,191.03L124.64,151.66L124.64,0Z " /><path id="Vector" fill-rule="evenodd" style="fill:#3F3D56" transform="translate(391.87 139.62)  rotate(0 63.16 96.66)" opacity="1" d="M126.32 0L126.32 153.42L0 193.32L0 39.9L126.32 0ZM124.64 152.2L1.68 191.03L1.68 41.12L124.64 2.29L124.64 152.2Z" /><path id="Vector" fill-rule="evenodd" style="fill:#FFFFFF" transform="translate(212.12 204.43)  rotate(0 49.98 76.6)" opacity="1" d="M99.96,153.2L99.96,31.57L0,0L0,121.63L99.96,153.2Z " /><path id="Vector" fill-rule="evenodd" style="fill:#3F3D56" transform="translate(211.28 203.29)  rotate(0 50.815 77.745)" opacity="1" d="M0 123.39L100.54 155.14L101.63 155.49L101.63 32.1L1.09 0.35L0 0L0 123.39ZM1.68 122.16L1.68 2.29L99.95 33.33L99.95 153.2L1.68 122.16Z" /><path id="Vector" fill-rule="evenodd" style="fill:#409EFF" transform="translate(422.61 189.5)  rotate(0 31.75 47.885)" opacity="1" d="M20.83 26.77C15.73 26.33 10.77 24.21 7.05 20.68C1.56 15.49 -1.04 7.42 0.38 0L18.6 17.77C18.81 13.1 21.31 8.45 25.5 6.4C30.1 4.16 36.51 5.93 38.61 10.59C41.55 17.13 35.04 24.49 28.07 26.22C27.86 26.27 27.64 26.32 27.42 26.37L48.25 46.68C40.53 42.11 31.59 38.93 25.22 32.6C23.5 30.89 21.98 28.92 20.83 26.77ZM48.25 46.68C51.99 48.9 55.45 51.46 58.18 54.86C65.46 63.96 65.24 78.23 57.68 87.09C50.11 95.95 36.04 98.42 25.91 92.66C21.73 90.29 18.14 86.49 17.1 81.8C16.06 77.11 18.15 71.61 22.54 69.66C27.2814 67.5527 32.0391 69.8951 36.9409 72.3084C40.5993 74.1095 44.338 75.9502 48.21 76.01C53.4 76.1 58.44 72.51 60.06 67.58C61.68 62.65 59.75 56.78 55.52 53.77L48.25 46.68Z" /><path id="Vector" fill-rule="evenodd" style="fill:#409EFF" transform="translate(230.59 242.11)  rotate(0 30.38 43.94)" opacity="1" d="M45.31 33.52C38.27 31.87 30.08 32.81 23.67 29.24C16.69 25.35 13.41 15.8 16.81 8.58C20.21 1.35 29.96 -2.19 37.08 1.44C41.77 3.82 44.86 8.67 46.11 13.78C47.35 18.89 46.96 24.26 46.09 29.44C45.86 30.81 45.6 32.17 45.31 33.52ZM47.75 74.54C44.77 73.53 41.08 73.92 39.05 76.33C36.55 79.28 37.76 84.27 40.97 86.42C44.18 88.58 48.63 88.19 51.97 86.24C56.38 83.65 59.03 78.76 60.08 73.76C61.12 68.77 60.75 63.6 60.38 58.5C59.8 50.52 58.71 41.54 52.35 36.67C50.25 35.06 47.86 34.12 45.31 33.52C44.28 38.33 42.85 43.05 41.03 47.63C39.02 52.71 35.56 58.3 30.1 58.65C25.939 58.9156 22.6676 56.0813 19.3606 53.2162C16.3175 50.5797 13.2442 47.9171 9.42 47.62C4.46 47.23 -0.27 51.87 0.01 56.82C0.3 61.78 5.53 65.84 10.41 64.89C15.28 63.94 18.6 58.21 17 53.51L47.75 74.54Z" /><path id="Vector" fill-rule="evenodd" style="fill:#FCD3D3" transform="translate(132.4 41.72)  rotate(0 16.795 16.565)" opacity="1" d="M0 27.9C0 27.9 10.47 8.72 7.85 0L33.59 6.54L26.61 33.13L0 27.9Z" /><g opacity="1" transform="translate(134.19 332.63)  rotate(0 29.685 35.685)"><path id="Vector" fill-rule="evenodd" style="fill:#FCD3D3" transform="translate(3.7 0)  rotate(0 11.825 30.885)" opacity="1" d="M16.03,61.77L23.65,0L0,0L0,61.77L16.03,61.77Z " /><path id="Vector" fill-rule="evenodd" style="fill:#303133" transform="translate(0 43.34)  rotate(0 29.685 14.015)" opacity="1" d="M41.67 14.64L52.77 16.01C53.2556 16.07 53.7305 16.1039 54.1894 16.1368C56.027 16.2684 57.6098 16.3817 58.61 18.07C59.11 18.91 59.37 21.62 59.37 22.59C59.37 25.6 56.94 28.03 53.93 28.03L4.31 28.03C2.26 28.03 0.6 26.37 0.6 24.32L0.6 22.26C0.6 22.26 -1.86 16.05 3.2 8.4C3.2 8.4 9.48 14.39 18.86 5.01L21.63 0L41.67 14.64Z" /></g><path id="Vector" fill-rule="evenodd" style="fill:#79BBFF" transform="translate(124.96 179.81)  rotate(0 28.715 92.995)" opacity="1" d="M56.35 0.31L56.95 19.85L57.27 30.76L57.43 35.83L35.35 185.99L7.65 185.99L11.33 100.28L13.27 55.21L7.65 33.76C7.65 33.76 5.09 28.99 2.93 23.21C0.49 16.68 -1.43 8.86 1.42 5.16C2.47 3.79 5.2 2.78 8.92 2.02C11.18 1.56 13.82 1.2 16.67 0.92C33.05 -0.7 56.35 0.31 56.35 0.31Z" /><g opacity="1" transform="translate(105.7 325.95)  rotate(0 29.295 38.985)"><path id="Vector" fill-rule="evenodd" style="fill:#FCD3D3" transform="translate(3.98 0)  rotate(0 16.195 31.72)" opacity="1" d="M15.86,63.44L32.39,3.44L8.99,0L0,61.11L15.86,63.44Z " /><path id="Vector" fill-rule="evenodd" style="fill:#303133" transform="translate(0 45.48)  rotate(0 29.295 16.24)" opacity="1" d="M52.27 32.42L3.17 25.21C1.14 24.91 -0.26 23.03 0.04 21L0.34 18.96C0.34 18.96 -1.19 12.46 4.93 5.63C4.93 5.63 10.27 12.47 20.93 4.55L24.39 0L42.09 17.4L52.88 20.36C55.24 21.01 57.42 20.98 58.35 23.25C58.72 24.15 58.59 26.87 58.44 27.84C58.01 30.8 55.24 32.86 52.27 32.42Z" /></g><path id="Vector" fill-rule="evenodd" style="fill:#409EFF" transform="translate(108.6 176.09)  rotate(0 37.07 92.965)" opacity="1" d="M27.41 185.93L0 181.9L24.6 53.34L22.16 31.29C22.16 31.29 21.37 29.1 20.46 25.89C18.65 19.54 16.39 9.21 18.88 3.93C19.22 3.22 19.64 2.6 20.16 2.09C21.14 1.14 23.13 0.57 25.8 0.26C36.95 -1 59.9 2.6 70.12 4.37L74.14 14.52L71.11 40.58L54.6 95.51L27.41 185.93Z" /><path id="Vector" fill-rule="evenodd" style="fill:#E9E9EB" transform="translate(122.81 64.82)  rotate(0 34.46 59.94)" opacity="1" d="M58.89 119.88L4.36 111.6C4.36 111.6 16.14 83.26 17.45 81.95C17.9723 81.4317 18.8077 81.6335 19.4784 81.7954C20.49 82.0397 21.127 82.1936 19.75 79.65C18.8672 78.0265 17.9374 77.0261 17.2498 76.2864C16.1459 75.0989 15.6667 74.5833 17.01 73.24C17.8723 72.3777 15.3913 67.4229 12.0769 60.8036C7.01171 50.6876 0 36.6842 0 27.46C0 12.21 9.16 0 9.16 0L38.82 2.18L68.92 40.11L63.52 79.65L58.89 119.88Z" /><path id="Vector" fill-rule="evenodd" style="fill:#FCD3D3" transform="translate(134.33 12.75)  rotate(0 20.275 20.265)" opacity="1" d="M20.27,0C9.08,0 0,9.07 0,20.27C0,31.46 9.08,40.53 20.27,40.53C31.47,40.53 40.55,31.46 40.55,20.27C40.55,9.07 31.47,0 20.27,0Z " /><path id="Vector" fill-rule="evenodd" style="fill:#303133" transform="translate(110.77 0)  rotate(0 33.555 41.42)" opacity="1" d="M13.88 36.34C12.69 31.57 17.38 29.3 19.9 28.45C17.36 29.03 11.83 29.74 5.02 27.21C-3.42486 24.0836 -0.15865 20.2954 7.01663 11.9733C7.82818 11.0321 8.68973 10.0328 9.59 8.97C18.45 -1.5 19.25 12.72 19.25 12.72C19.25 12.72 25.43 1.45 39.39 0.11C53.35 -1.23 54.16 10.04 54.16 10.04C54.16 10.04 61.68 11.38 65.7 19.97C69.73 28.56 63.82 28.56 63.82 28.56L56.84 22.92C56.84 22.92 46.99 33.81 46.45 40.79C45.92 47.77 42.88 71.76 42.88 71.76C42.88 71.76 42.34 76.05 39.66 81.15C37.1794 85.853 17.1219 79.6033 5.80378 76.0767C4.84829 75.779 3.95508 75.5007 3.14 75.25C-3.25354 73.2837 2.76667 61.6109 8.05716 51.3529C11.4303 44.8126 14.5068 38.8474 13.88 36.34Z" /><path id="Vector" fill-rule="evenodd" style="fill:#FCD3D3" transform="translate(140.05 85.52)  rotate(0 49.785 66.215)" opacity="1" d="M95.05 114.16C100.11 120.24 101.06 127.77 97.19 130.99C93.32 134.2 86.09 131.87 81.04 125.8C78.83 123.14 77.4 120.2 76.82 117.46L71.89 112.25L35.4 74.93L0 7.75L5.83 0.66C5.83 0.66 13.25 -1.97 19.49 3.26C25.74 8.48 46.63 56.56 46.63 56.56L84.68 105.03L87.63 108.49C90.21 109.56 92.84 111.5 95.05 114.16Z" /><path id="Vector" fill-rule="evenodd" style="fill:#E9E9EB" transform="translate(137.85 82.45)  rotate(0 20.765 27.715)" opacity="1" d="M41.03 38.97C41.03 38.97 42.88 38.89 39.44 35.01C36.54 31.73 36.71 25.27 36.84 23.34C37.71 23.85 36.88 22.78 36.88 22.78C36.88 22.78 36.86 22.99 36.84 23.34C36.52 23.16 35.97 22.75 35.06 22.01C31.69 19.23 34.83 0.12 34.83 0.12L0 0C0 0 9.31 48.31 19.91 55.43L41.03 38.97Z" /></g></svg>
